<svg width="64" height="16" xmlns="http://www.w3.org/2000/svg">

 <g>
  <title>background</title>
  <rect fill="none" id="canvas_background" height="402" width="582" y="-1" x="-1"/>
 </g>
 <g>
  <title>Layer 1</title>
  <g id="svg_1">
   <polygon id="svg_2" points="8,12.6000004 0.3,4.9000001 1.7,3.4000001 8,9.6999998 14.3000002,3.4000001 15.6999998,4.9000001     " fill="#6c7079"/>
  </g>
  <g id="svg_3">
   <path id="svg_4" d="m31,3l-6.6,0l-2.7,-2.7c-0.2,-0.2 -0.4,-0.3 -0.7,-0.3l-4,0c-0.6,0 -1,0.4 -1,1l0,14c0,0.6 0.4,1 1,1l14,0c0.6,0 1,-0.4 1,-1l0,-11c0,-0.6 -0.4,-1 -1,-1z" fill="#6C7079"/>
  </g>
  <g id="svg_5">
   <path id="svg_6" d="m47.8,7.4c-0.2,-0.2 -0.5,-0.4 -0.8,-0.4l-11,0c-0.4,0 -0.8,0.2 -0.9,0.6l-3,7c-0.2,0.6 0,1.4 0.9,1.4l11,0c0.4,0 0.8,-0.2 0.9,-0.6l3,-7c0.2,-0.3 0.1,-0.7 -0.1,-1z" fill="#6C7079"/>
   <path id="svg_7" d="m33.2,6.8c0.5,-1.1 1.6,-1.8 2.8,-1.8l9,0l0,-2c0,-0.6 -0.4,-1 -1,-1l-5.6,0l-1.7,-1.7c-0.2,-0.2 -0.4,-0.3 -0.7,-0.3l-3,0c-0.6,0 -1,0.4 -1,1l0,8.7l1.2,-2.9z" fill="#6C7079"/>
  </g>
  <g stroke="null" id="svg_8">
   <path stroke="null" id="svg_9" d="m63,-0.143885l-14,0c-0.6,0 -1,0.4 -1,1l0,14c0,0.6 0.4,1 1,1l14,0c0.6,0 1,-0.4 1,-1l0,-14c0,-0.6 -0.4,-1 -1,-1zm-9,4c0.6,0 1,0.4 1,1s-0.4,1 -1,1s-1,-0.4 -1,-1s0.4,-1 1,-1zm-3,8l2,-4l2,2l3,-4l3,6l-10,0z" fill="#6C7079"/>
  </g>
  <rect stroke="#ffffff" id="svg_10" height="11.798557" width="11.079132" y="1.74101" x="50.489201" stroke-width="1.5" fill="#000"/>
  <path d="m52.21582,4.906476c0.143883,0 0.431652,0 1.007195,0c0.287769,0 1.007191,0 1.438847,0c0.143887,0 0.287769,0 0.575539,0c0.431656,0 0.719425,0 1.582733,0c0.287769,0 0.431656,0 0.575539,0c0.143887,0 0.431656,0 0.575542,0c0.143883,0 0.287769,0 0.431652,0c0.143887,0 0.287769,0.143885 0.431656,0.143885l0.143887,0l0.143883,0l0.143887,0" id="svg_11" stroke-width="1.5" stroke="#000" fill="none"/>
  <line stroke="#ffffff" stroke-linecap="null" stroke-linejoin="null" id="svg_14" y2="5.194246" x2="59.266176" y1="5.194246" x1="52.935244" stroke-width="1.5" fill="none"/>
  <line stroke="#ffffff" stroke-linecap="null" stroke-linejoin="null" id="svg_15" y2="7.640288" x2="59.266176" y1="7.640288" x1="52.935244" stroke-width="1.5" fill="none"/>
  <line stroke="#ffffff" stroke-linecap="null" stroke-linejoin="null" id="svg_16" y2="10.230215" x2="59.266176" y1="10.230215" x1="52.935244" stroke-width="1.5" fill="none"/>
 </g>
</svg>